<?xml version="1.0" encoding="utf-8"?>
<!-- Generator: Adobe Illustrator 18.0.0, SVG Export Plug-In . SVG Version: 6.00 Build 0)  -->
<!DOCTYPE svg PUBLIC "-//W3C//DTD SVG 1.1//EN" "http://www.w3.org/Graphics/SVG/1.1/DTD/svg11.dtd">
<svg version="1.1" id="レイヤー_1" xmlns="http://www.w3.org/2000/svg" xmlns:xlink="http://www.w3.org/1999/xlink" x="0px"
	 y="0px" viewBox="0 0 120 120" enable-background="new 0 0 120 120" xml:space="preserve">
<path fill="#FFFFFF" stroke="#231815" stroke-miterlimit="10" d="M116.4,57.3c0-9.3-3-18-8-25.1c1.8-1.8,2.9-4.3,2.9-7
	c0-5.5-4.5-10-10-10c-3.2,0-6,1.5-7.8,3.8c-6.1-3.3-13.1-5.1-20.5-5.1c-2.7,0-5.4,0.3-8,0.7c-2.8-3.3-6.9-5.4-11.5-5.4
	c-6.9,0-12.6,4.6-14.5,10.8c-17.5,1-31.4,13.9-31.4,29.7c0,4.7,1.2,9.1,3.4,13c-4,3.8-6.5,9.2-6.5,15.1c0,11.4,9.1,20.6,20.4,20.8
	c-6,9-12.3,15.9-12.3,15.9s15.4-0.9,29-7.5c2.2,0.7,4.6,1.1,7.1,1.1c6.9,0,13.1-3.1,17.3-8c2.3,0.4,4.6,0.6,7,0.6
	c6.8,0,13.3-1.6,19-4.4c2.1,1.7,4.7,2.8,7.7,2.8c6.6,0,11.9-5.3,11.9-11.9c0-2.4-0.7-4.7-2-6.5C113.9,74,116.4,65.9,116.4,57.3z"/>
</svg>
