<?xml version="1.0" encoding="utf-8"?>
<!-- Generator: Adobe Illustrator 18.0.0, SVG Export Plug-In . SVG Version: 6.00 Build 0)  -->
<!DOCTYPE svg PUBLIC "-//W3C//DTD SVG 1.1//EN" "http://www.w3.org/Graphics/SVG/1.1/DTD/svg11.dtd">
<svg version="1.1" id="レイヤー_1" xmlns="http://www.w3.org/2000/svg" xmlns:xlink="http://www.w3.org/1999/xlink" x="0px"
	 y="0px" viewBox="0 0 180 48" enable-background="new 0 0 180 48" xml:space="preserve">
<path fill="#FFFFFF" d="M47.1,14.1c-2.3,0-4.4,1-5.8,2.5c-1.4-1.6-3.4-2.5-5.6-2.5c-4.3,0-7.7,3.5-7.7,7.8v16h4V22
	c0-2,1.5-3.6,3.5-3.6c2,0,3.5,1.6,3.5,3.6v16h4.4l0-16.1l0,0c0-1.7,1.8-3.6,3.8-3.6c2,0,3.8,1.6,3.8,3.6v16h4V22
	C55,17.6,51.4,14.1,47.1,14.1z"/>
<path fill="#FFFFFF" d="M71,39.4c-7.1,0-12.8-5.8-12.8-12.8S63.9,13.8,71,13.8c7.1,0,12.8,5.8,12.8,12.8S78.1,39.4,71,39.4z M71,18
	c-4.8,0-8.6,3.9-8.6,8.6s3.9,8.6,8.6,8.6c4.8,0,8.6-3.9,8.6-8.6S75.7,18,71,18z"/>
<g>
	<path fill="#FFFFFF" d="M99.4,39.2c-7.1,0-12.8-5.8-12.8-12.9c0-7.1,5.8-12.8,12.8-12.8c5.7,0,10.5,3.5,12.2,8.9l-4,1.3
		c-1.1-3.6-4.3-5.9-8.2-5.9c-4.8,0-8.6,3.8-8.6,8.6c0,4.8,3.9,8.7,8.6,8.7c3.7,0,7-2.3,8.2-5.8l4,1.4
		C109.8,35.7,104.9,39.2,99.4,39.2z"/>
	<path fill="#FFFFFF" stroke="#000000" stroke-width="11" stroke-miterlimit="10" d="M109.6,29.9"/>
	<path fill="#FFFFFF" stroke="#000000" stroke-width="11" stroke-miterlimit="10" d="M109.6,23"/>
</g>
<path fill="#FFFFFF" d="M139.8,26.6c0-7.1-5.9-12.8-13-12.8c-7.1,0-12.9,5.8-12.9,12.8s5.7,12.8,12.8,12.8c3.2,0,6.4-1.2,8.4-3.2V38
	h5V28C140,27.5,139.8,27.1,139.8,26.6z M126.6,35.2c-4.8,0-8.6-3.9-8.6-8.6s3.9-8.6,8.6-8.6c4.3,0,7.9,3.2,8.5,7.4l0,0
	c0.2,1,0,2.3-0.1,3.1C134.4,32.3,130.8,35.2,126.6,35.2z"/>
<g>
	<path fill="#FFFFFF" d="M64.3,16.3c-3.3-1.9-5.1-4.5-5.4-6.9c-0.2-1.5-0.6-2.4-1.6-2.5c-0.9-0.1-1.4,0.9-1.5,2.3
		c-0.3,4.4,0.8,8.5,6,11.5c0.2,0.1,0.4,0.2,0.5,0.2c1.1,0.3,2.3-0.1,2.9-1.2C65.9,18.5,65.5,17,64.3,16.3z"/>
	<path fill="#FFFFFF" d="M86.2,9.2c-0.1-1.4-0.6-2.4-1.5-2.3c-0.9,0.1-1.4,1-1.6,2.5c-0.3,2.4-2.1,5-5.4,6.9
		c-1.2,0.7-1.6,2.2-0.9,3.4c0.6,1,1.8,1.5,2.9,1.2c0.2-0.1,0.4-0.1,0.5-0.2C85.4,17.7,86.5,13.6,86.2,9.2z"/>
</g>
<path fill="#FFFFFF" d="M152,39.6V35h-1.5c0,0,0,0,0,0H150c-0.8,0-1.6-0.1-2.1-0.6c-0.6-0.5-0.9-0.9-0.9-2.2l0,0V11h-4v21.3l0,0
	c0,2.6,0.8,4.1,2.2,5.4c0.8,0.8,2.2,1.7,4.2,1.9L152,39.6z"/>
</svg>
