<?xml version="1.0" encoding="utf-8"?>
<!-- Generator: Adobe Illustrator 18.0.0, SVG Export Plug-In . SVG Version: 6.00 Build 0)  -->
<!DOCTYPE svg PUBLIC "-//W3C//DTD SVG 1.1//EN" "http://www.w3.org/Graphics/SVG/1.1/DTD/svg11.dtd">
<svg version="1.1" id="レイヤー_1" xmlns="http://www.w3.org/2000/svg" xmlns:xlink="http://www.w3.org/1999/xlink" x="0px"
	 y="0px" viewBox="0 0 200 32" enable-background="new 0 0 200 32" xml:space="preserve">
<g opacity="0.21">
	<path d="M19.7,18l-0.3,3.7l-1.4,0.1l0.3-3.7l-4.6,0.3l0.1-1.2l4.6-0.3l0.2-2.4l-4.2,0.3l0.1-1.2l4.1-0.3L19,11l1.3-0.1l-0.2,2.3
		l4.4-0.3L24.4,14L20,14.3l-0.2,2.5l4.6-0.3l-0.1,1.2L19.7,18z"/>
	<path d="M36.7,15.6l-0.2,1.3H26l0.2-1.3H36.7z"/>
	<path d="M39.9,21.7l-0.7-1.2c5.8-0.9,7.4-4.2,8.1-7.5h-6.4l-0.6,3.5h-1.3l0.9-4.6c0,0,8.6,0,9.1,0C47.9,17.1,45.9,20.4,39.9,21.7z"
		/>
	<path d="M60.7,15.6l-0.2,1.3H50l0.2-1.3H60.7z"/>
	<path d="M62.9,21.6l2-10.7h1.4l-0.6,3.2c1.5,0.4,4.9,1.6,6.7,2.5L71.5,18c-1.9-1.1-4.2-2-6.1-2.6l-1.1,6.2L62.9,21.6z M70.3,14.2
		c-0.4-0.6-1-1.4-1.6-1.9l0.8-0.5c0.5,0.4,1.2,1.2,1.6,1.8L70.3,14.2z M71.8,13.1c-0.4-0.6-1.1-1.4-1.6-1.8l0.7-0.5
		c0.5,0.4,1.2,1.2,1.6,1.8L71.8,13.1z"/>
	<path d="M81,17c0,0.1,0,0.2,0,0.3c-0.1,0.4-0.2,1-0.3,1.8l-1.3,0.1c0.1-0.5,0.3-1.1,0.4-1.7c-0.2,0.1-0.4,0.2-0.6,0.3
		c-1.1,0.5-1.9,1.1-2,1.6l0,0c-0.2,0.9,1.6,1,2.3,1c0,0,0.1,0,0.1,0c0.8,0,2.1-0.1,3.4-0.3l-0.3,1.3c-1,0.1-2.1,0.2-3.1,0.2
		c-0.2,0-0.3,0-0.5,0c-1.2,0-3.4-0.3-3.1-2.2l0,0c0.2-1,1.3-1.8,2.6-2.5c0.4-0.2,0.9-0.4,1.4-0.6c0-0.6-0.1-1-0.7-1c0,0,0,0-0.1,0
		c-0.7,0-1.7,0.5-3,1.6c-0.4,0.4-0.9,0.8-1.4,1.3l-0.9-0.8c1.5-1.2,3-2.7,4-4.1l-3,0l0.2-1.1h3.4c0.3-0.5,0.6-0.9,0.8-1.3l1.3,0.2
		c-0.2,0.4-0.5,0.7-0.7,1.1h3.9l-0.2,1.1h-4.4c-0.6,0.7-1.2,1.4-1.7,1.9c0.7-0.5,1.4-0.7,2-0.8c0,0,0.1,0,0.1,0c1,0,1.5,0.4,1.5,1.5
		c1.4-0.5,2.8-0.8,3.5-1l0.3,1.2C83.7,16.3,82.3,16.6,81,17z"/>
	<path d="M95.3,21.9c-1.9-1.4-3.4-4.1-3.3-6.7c-0.9,2.7-3.2,5.2-6.5,6.7l-0.6-1.2c4.7-1.8,6.5-6.1,6.8-7.7l0.1-0.8h-2.7l0.2-1.2h4.1
		l-0.2,1.4c-0.6,3,0.3,6.1,3.2,8.3L95.3,21.9z"/>
	<path d="M103.5,21.8l-0.3-1.2c0.5,0,0.9,0,1.2,0c1.8,0,1.9-0.4,2.8-5.5c0-0.3,0.1-0.6,0.2-0.9h-3.6c-0.8,3.1-2.3,5.9-5.9,7.7
		l-0.9-1.1c3.2-1.4,4.7-3.8,5.5-6.7h-3.9l0.2-1.1h3.9c0.2-0.8,0.4-1.6,0.5-2.5h1.3c-0.2,0.9-0.3,1.7-0.5,2.5h4.8h0
		C107.3,21.5,107.2,21.8,103.5,21.8z"/>
</g>
</svg>
