<?xml version="1.0" encoding="utf-8"?>
<!-- Generator: Adobe Illustrator 18.0.0, SVG Export Plug-In . SVG Version: 6.00 Build 0)  -->
<!DOCTYPE svg PUBLIC "-//W3C//DTD SVG 1.1//EN" "http://www.w3.org/Graphics/SVG/1.1/DTD/svg11.dtd">
<svg version="1.1" id="レイヤー_1" xmlns="http://www.w3.org/2000/svg" xmlns:xlink="http://www.w3.org/1999/xlink" x="0px"
	 y="0px" viewBox="0 0 48 48" enable-background="new 0 0 48 48" xml:space="preserve">
<g>
	<path fill="#FFFFFF" d="M25.4,4.6c-0.7-0.9-1.5-1.4-2.1-0.9c-0.6,0.5-0.5,1.3,0.1,2.4c0.9,1.8,0.9,4.3-0.4,7
		c-1.9,0.1-3.7,0.7-5.4,1.8c-2,1.4-3.4,3.3-4.1,5.5c-2.8,0.1-4.9-0.9-6.2-2.2c-0.8-0.9-1.5-1.3-2.2-1c-0.7,0.4-0.5,1.2,0,2.2
		c1.6,2.8,3.9,4.9,7.8,5.1c0.1,1.8,0.7,3.5,1.8,5.1c3.3,4.8,9.9,6.1,14.7,2.8s6.1-9.9,2.8-14.7c-1.3-1.9-3.1-3.3-5.1-4
		C28.5,10,27.4,7.1,25.4,4.6z M27.5,29.6c-3.2,2.2-7.7,1.3-9.9-1.9s-1.3-7.7,1.9-9.9s7.7-1.3,9.9,1.9S30.8,27.4,27.5,29.6z"/>
	<path fill="#FFFFFF" d="M26.9,33.6l4.9,7.2c0.4,0.5,1.4,0.5,2.2-0.1l1.5-1c0.9-0.6,1.3-1.5,0.9-2l-4.9-7.2
		c-0.4-0.5-1.4-0.5-2.2,0.1l-1.5,1C27,32.2,26.6,33.1,26.9,33.6z"/>
</g>
</svg>
